<svg width="38" height="39" viewBox="0 0 38 39" fill="none" xmlns="http://www.w3.org/2000/svg">
<g clip-path="url(#clip0_31_959)">
<path d="M26.5146 15.1826C25.1312 15.1826 24.0098 16.3041 24.0098 17.6875V15.4609C24.0098 14.0775 22.8883 12.9561 21.5049 12.9561C20.1214 12.9561 19 14.0775 19 15.4609V13.9766C19 12.5931 17.8786 11.4717 16.4951 11.4717C15.1117 11.4717 13.9902 12.5931 13.9902 13.9766V20.5635C13.9902 18.8214 12.578 17.4092 10.8359 17.4092C9.8112 17.4092 8.98047 18.2399 8.98047 19.2646V26.812C8.98047 29.6542 10.3875 32.3401 12.6914 33.9683V37.0771C12.6914 37.692 13.1899 38.1904 13.8047 38.1904H24.1953C24.8101 38.1904 25.3086 37.692 25.3086 37.0771V33.9683C27.6125 32.3401 29.0195 29.6542 29.0195 26.812V17.6875C29.0195 16.3041 27.8981 15.1826 26.5146 15.1826Z" fill="#29CE69"/>
<path d="M13.5329 7.33899L17.1829 3.68892C15.4513 2.73365 13.4201 2.37547 11.4461 2.71472L9.24784 0.51651C8.81307 0.0817363 8.10821 0.0817363 7.67344 0.51651L0.32608 7.8638C-0.108693 8.29857 -0.108693 9.00342 0.32608 9.4382L2.52429 11.6364C2.04662 14.4169 2.95083 17.311 4.9606 19.3208L6.75394 21.1141V19.2647C6.75394 17.0139 8.58514 15.1827 10.836 15.1827C11.1524 15.1827 11.4621 15.2117 11.7637 15.2644V12.7942C11.4504 10.8341 12.0757 8.79613 13.5329 7.33899Z" fill="#29CE69"/>
<path d="M37.674 7.8638L30.3267 0.51651C29.8919 0.0817363 29.187 0.0817363 28.7523 0.51651L26.554 2.71479C23.7736 2.23697 20.8794 3.14126 18.8696 5.1511L15.1073 8.91347C14.8707 9.15008 14.6683 9.41044 14.5005 9.68765C15.1071 9.40443 15.7827 9.24515 16.4951 9.24515C17.9478 9.24515 19.2491 9.90377 20.1177 10.9374C20.5566 10.8026 21.0223 10.7295 21.5049 10.7295C23.2338 10.7295 24.7484 11.6622 25.5739 13.0504C25.8781 12.9887 26.1926 12.9561 26.5146 12.9561C29.1236 12.9561 31.2461 15.0786 31.2461 17.6875V21.1141L33.0394 19.3208C35.0491 17.311 35.9533 14.4169 35.4757 11.6364L37.6739 9.4382C38.1087 9.0035 38.1087 8.29857 37.674 7.8638Z" fill="#29CE69"/>
</g>
<defs>
<clipPath id="clip0_31_959">
<rect width="38" height="38" fill="white" transform="translate(0 0.19043)"/>
</clipPath>
</defs>
</svg>
