<svg width="38" height="39" viewBox="0 0 38 39" fill="none" xmlns="http://www.w3.org/2000/svg">
<path d="M28.8887 23.3876L22.0977 15.9031C20.379 14.4118 17.6177 14.4118 15.8991 15.9031L9.10804 23.3876C7.94681 24.3952 7.28189 25.9368 7.30786 27.5588C7.37562 31.7205 7.36776 34.6738 10.0117 38.1903H27.9851C30.629 34.6738 30.6211 31.7205 30.6888 27.5588C30.7148 25.9368 30.0499 24.3952 28.8887 23.3876Z" fill="#29CE69"/>
<path d="M5.14548 18.6297L0.861052 15.9482L0.0443488 21.0251C-0.379886 23.662 2.31693 25.9907 4.82359 24.8136C7.29374 23.6537 7.43275 20.0612 5.14548 18.6297Z" fill="#29CE69"/>
<path d="M9.27412 14.7438C11.5392 13.842 11.8439 10.6289 9.88137 9.23105L6.18825 6.60059L5.19565 11.0965C4.68176 13.4244 6.99553 15.6509 9.27412 14.7438Z" fill="#29CE69"/>
<path d="M37.9557 21.0251L37.139 15.9482L32.8545 18.6297C30.5673 20.0612 30.7063 23.6536 33.1765 24.8136C35.6832 25.9907 38.3799 23.662 37.9557 21.0251Z" fill="#29CE69"/>
<path d="M28.7258 14.7439C31.0044 15.651 33.3182 13.4245 32.8042 11.0965L31.8116 6.60059L28.1185 9.23105C26.1559 10.629 26.4607 13.8421 28.7258 14.7439Z" fill="#29CE69"/>
<path d="M18.9984 11.8376C22.3256 11.9505 24.0552 7.85144 22.3341 5.26922L18.9984 0.19043L15.6627 5.26922C13.9416 7.85144 15.6713 11.9505 18.9984 11.8376Z" fill="#29CE69"/>
</svg>
