<svg width="38" height="39" viewBox="0 0 38 39" fill="none" xmlns="http://www.w3.org/2000/svg">
<g clip-path="url(#clip0_31_936)">
<path d="M17.9041 35.7273C17.6942 36.3177 17.508 37.3043 17.4366 37.9382C13.942 37.6173 10.7444 36.286 8.13732 34.2335C8.92708 32.4684 7.83628 31.0285 6.52469 29.6691C5.9066 29.0312 5.32814 28.4249 5.03089 27.6681C4.70997 26.8598 4.90019 25.6791 5.70443 25.378C6.38226 25.1227 7.253 25.1918 7.28135 23.5474C7.29664 22.435 7.06263 20.3208 6.46123 19.3911H27.2866C26.296 19.3911 25.2856 19.5338 24.8103 19.7556C23.8791 20.1835 23.2175 21.1701 23.0392 22.3984C22.9203 23.278 23.0432 24.1457 23.2016 24.9897C21.4424 25.164 19.7189 25.7187 18.1815 26.6142C17.702 26.8995 17.0563 27.367 16.9532 28.108C16.8621 28.8884 17.4406 29.5185 17.7893 29.8949C18.6174 30.7904 19.4534 31.6898 20.2776 32.5734C20.7093 33.0376 20.9736 33.4668 19.608 33.9998C18.6926 34.3683 18.2963 34.6496 17.9041 35.7273Z" fill="#29CE69"/>
<path d="M33.5628 31.0006C30.0014 35.4821 24.3736 38.25 18.2211 37.9938C18.2884 37.451 18.4627 36.5198 18.6529 35.9968C18.954 35.1648 19.164 35.034 19.9049 34.7368C21.391 34.141 21.9515 33.1862 20.8519 32.0307C20.0397 31.1549 19.1997 30.2556 18.3716 29.3562C18.0269 28.9837 17.694 28.5875 17.7416 28.2071C17.7812 27.906 18.0507 27.6168 18.5856 27.2998C20.1387 26.3925 21.9059 25.8536 23.6968 25.7466C23.9306 25.7347 24.1088 25.5128 24.0613 25.275C23.8829 24.3558 23.7007 23.4089 23.8235 22.5094C23.9305 21.7684 24.3346 20.8453 25.1429 20.4729C25.7769 20.1757 27.9601 20.0529 28.915 20.3778C29.5053 20.576 30.1393 21.0792 30.2225 21.7487C30.3149 22.5989 29.5709 23.5607 29.846 24.6331C30.0996 25.6078 31.0426 26.0912 31.7122 26.6142C32.9245 27.5656 33.695 29.1064 33.5628 31.0006Z" fill="#29CE69"/>
<path d="M37.6238 19.3911C37.6238 23.3098 36.4113 26.9391 34.347 29.9385C34.2047 28.4454 33.4573 26.9811 32.1995 25.9921C31.5497 25.4849 30.785 25.0887 30.6146 24.435C30.4142 23.6493 31.1325 22.7055 31.0069 21.6536C30.8959 20.7621 30.1748 19.9657 29.1724 19.6289C28.689 19.4625 27.9955 19.3912 27.2864 19.3912H37.6238V19.3911Z" fill="#29CE69"/>
<path d="M5.42708 24.6351C6.10848 24.3798 6.47638 24.5891 6.48766 23.5372C6.50058 22.7101 6.23784 19.7203 5.47599 19.561C5.06259 19.4597 4.29353 20.0933 2.45907 20.0429C2.17956 19.9848 1.69417 20.0845 1.42943 19.3916H0.380127C0.380127 25.2895 3.12221 30.5415 7.40352 33.9524C8.04759 32.5331 7.03369 31.3384 5.95403 30.2192C5.31115 29.5523 4.64637 28.8628 4.29212 27.9596C3.81081 26.7334 4.18339 25.1002 5.42708 24.6351Z" fill="#29CE69"/>
<path d="M0.395177 15.2269H3.74719V18.5988H6.29089V15.2269H9.6389C9.78942 15.2269 9.9242 15.1437 9.99159 15.0129C10.0589 14.8822 10.051 14.7237 9.96383 14.6009L8.02234 11.859H8.70382C8.8504 11.859 8.98518 11.7798 9.05651 11.6491C9.12382 11.5183 9.11195 11.3598 9.02875 11.237L7.17046 8.5744H7.90344C8.05396 8.5744 8.18874 8.4912 8.25613 8.35642C8.32345 8.22564 8.31157 8.06318 8.22444 7.94436L5.33993 3.9623C5.26467 3.85928 5.14577 3.7959 5.019 3.7959C4.89224 3.7959 4.77334 3.85928 4.69808 3.9623L1.81365 7.94428C1.72651 8.06318 1.71456 8.22564 1.78195 8.35634C1.84927 8.49105 1.98398 8.57432 2.13457 8.57432H2.86755L1.00926 11.2369C0.922056 11.3598 0.914189 11.5183 0.981505 11.649C1.04882 11.7798 1.1836 11.8589 1.33419 11.8589H2.01567L0.0742551 14.6008C-0.0129519 14.7236 -0.0248269 14.8822 0.0464973 15.0129C0.113888 15.1436 0.248595 15.2269 0.395177 15.2269Z" fill="#29CE69"/>
<path d="M13.9697 6.04641H15.6181L12.2899 9.39843C12.175 9.51332 12.1433 9.68372 12.2068 9.83031C12.2662 9.97689 12.4128 10.076 12.5712 10.076H14.1324L10.6575 13.5231C10.5426 13.634 10.5109 13.8084 10.5704 13.9549C10.6338 14.1015 10.7764 14.2006 10.9389 14.2006H17.0763V18.5987H20.9236V14.2006H27.065C27.2235 14.2006 27.3701 14.1015 27.4295 13.9549C27.4889 13.8083 27.4572 13.6379 27.3423 13.5231L23.8713 10.076H25.4285C25.5908 10.076 25.7336 9.97689 25.797 9.83031C25.8564 9.68372 25.8247 9.51339 25.7097 9.39843L22.3816 6.04641H24.0337C24.1961 6.04641 24.3388 5.94733 24.4022 5.79681C24.4617 5.65023 24.4261 5.47589 24.3111 5.36493L19.2751 0.483492C19.1245 0.332977 18.8789 0.332977 18.7243 0.483492L13.6923 5.36493C13.5774 5.47589 13.5418 5.65023 13.6012 5.79681C13.6607 5.9474 13.8072 6.04641 13.9697 6.04641Z" fill="#29CE69"/>
<path d="M29.7431 8.35642C29.8105 8.49113 29.9492 8.5744 30.0958 8.5744H30.8288L28.9705 11.237C28.8873 11.3598 28.8755 11.5184 28.9467 11.6491C29.014 11.7798 29.1487 11.859 29.2954 11.859H29.9769L28.0354 14.6009C27.9522 14.7237 27.9403 14.8823 28.0077 15.0129C28.075 15.1437 28.2137 15.2269 28.3603 15.2269H31.7123V18.5988H34.2521V15.227H37.6041C37.7507 15.227 37.8855 15.1438 37.9568 15.013C38.0241 14.8822 38.0122 14.7238 37.9251 14.601L35.9875 11.8591H36.6691C36.8157 11.8591 36.9504 11.7798 37.0178 11.6491C37.0851 11.5184 37.0772 11.3599 36.9939 11.2371L35.1317 8.57447H35.8647C36.0152 8.57447 36.15 8.49127 36.2213 8.35649C36.2886 8.22579 36.2768 8.06325 36.1896 7.94443L33.3012 3.9623C33.2299 3.85928 33.111 3.7959 32.9803 3.7959C32.8535 3.7959 32.7346 3.85928 32.6593 3.9623L29.7749 7.94428C29.6876 8.06311 29.6758 8.22557 29.7431 8.35642Z" fill="#29CE69"/>
<path d="M26.4152 1.16476C26.5224 1.1632 27.4632 1.16802 27.5797 2.56683C27.5968 2.77211 27.7685 2.93013 27.9746 2.93013C28.1806 2.93013 28.3522 2.77219 28.3694 2.56683C28.4856 1.17062 29.4184 1.15667 29.5333 1.16476C29.7492 1.17136 29.9355 1.00905 29.9485 0.791884C29.9611 0.573235 29.7943 0.385982 29.5758 0.37329C29.1423 0.351989 28.4253 0.530708 27.9745 1.22881C27.5239 0.530634 26.8088 0.351618 26.3734 0.37329C26.1567 0.385907 25.9928 0.570415 26.0029 0.787356C26.013 1.00415 26.1944 1.17233 26.4152 1.16476Z" fill="#29CE69"/>
<path d="M9.39077 4.58935C9.51961 4.58393 10.1625 4.61948 10.248 5.64645C10.2651 5.85196 10.4368 6.00975 10.6428 6.00975C10.8489 6.00975 11.0207 5.85181 11.0377 5.64645C11.1232 4.62186 11.7616 4.58438 11.8942 4.58935C12.1165 4.59981 12.2956 4.43327 12.3082 4.21632C12.3209 3.9979 12.154 3.81057 11.9354 3.79788C11.5923 3.78125 11.0253 3.91396 10.6428 4.42607C10.2603 3.91396 9.69284 3.78029 9.35017 3.79788C9.1339 3.8105 8.97077 3.99426 8.98012 4.21061C8.98947 4.42703 9.16567 4.59877 9.39077 4.58935Z" fill="#29CE69"/>
</g>
<defs>
<clipPath id="clip0_31_936">
<rect width="38" height="38" fill="white" transform="translate(0 0.19043)"/>
</clipPath>
</defs>
</svg>
